<svg width="15" height="14" viewBox="0 0 15 14" fill="none" xmlns="http://www.w3.org/2000/svg">
<path d="M4.55291 9.78068C3.11918 8.34417 2.01659 6.61178 1.32224 4.70468C0.940243 3.66202 1.29024 2.51668 2.07558 1.73135L2.56158 1.24602C2.69223 1.11509 2.84743 1.01123 3.01828 0.940356C3.18913 0.869487 3.37228 0.833008 3.55724 0.833008C3.74221 0.833008 3.92536 0.869487 4.09621 0.940356C4.26706 1.01123 4.42225 1.11509 4.55291 1.24602L5.69091 2.38402C5.82183 2.51467 5.9257 2.66987 5.99657 2.84072C6.06744 3.01157 6.10392 3.19472 6.10392 3.37968C6.10392 3.56465 6.06744 3.7478 5.99657 3.91865C5.9257 4.08949 5.82183 4.24469 5.69091 4.37535L5.41091 4.65535C5.29883 4.7674 5.20993 4.90043 5.14927 5.04685C5.08861 5.19327 5.05739 5.3502 5.05739 5.50868C5.05739 5.66717 5.08861 5.8241 5.14927 5.97051C5.20993 6.11693 5.29883 6.24996 5.41091 6.36202L7.97091 8.92268C8.08296 9.03476 8.216 9.12366 8.36241 9.18432C8.50883 9.24498 8.66576 9.2762 8.82424 9.2762C8.98273 9.2762 9.13966 9.24498 9.28607 9.18432C9.43249 9.12366 9.56552 9.03476 9.67758 8.92268L9.95824 8.64268C10.0889 8.51176 10.2441 8.40789 10.4149 8.33702C10.5858 8.26615 10.7689 8.22967 10.9539 8.22967C11.1389 8.22967 11.322 8.26615 11.4929 8.33702C11.6637 8.40789 11.8189 8.51176 11.9496 8.64268L13.0876 9.78068C13.2185 9.91134 13.3224 10.0665 13.3932 10.2374C13.4641 10.4082 13.5006 10.5914 13.5006 10.7763C13.5006 10.9613 13.4641 11.1445 13.3932 11.3153C13.3224 11.4862 13.2185 11.6414 13.0876 11.772L12.6022 12.2573C11.8169 13.0433 10.6716 13.3933 9.62891 13.0113C7.72181 12.317 5.98942 11.2144 4.55291 9.78068Z" stroke="white" stroke-width="1.5" stroke-linejoin="round"/>
</svg>
