<svg width="14" height="16" viewBox="0 0 14 16" fill="none" xmlns="http://www.w3.org/2000/svg">
<path d="M12.5002 7.33331C12.5002 6.37665 12.4989 5.70928 12.4312 5.20571C12.3737 4.77754 12.2747 4.52535 12.1272 4.34568L12.0608 4.27277C11.8766 4.08834 11.6171 3.96812 11.1278 3.90232C10.6243 3.83463 9.95691 3.83331 9.00025 3.83331H7.00025C6.04358 3.83331 5.37621 3.83463 4.87264 3.90232C4.44447 3.95991 4.19228 4.05883 4.01262 4.20636L3.9397 4.27277C3.75527 4.45699 3.63505 4.71646 3.56926 5.20571C3.50156 5.70928 3.50025 6.37665 3.50025 7.33331V10.6666C3.50025 11.6233 3.50156 12.2907 3.56926 12.7943C3.63505 13.2835 3.75527 13.543 3.9397 13.7272L4.01262 13.7936C4.19228 13.9411 4.44447 14.0401 4.87264 14.0976C5.37621 14.1653 6.04358 14.1666 7.00025 14.1666H9.00025C9.95691 14.1666 10.6243 14.1653 11.1278 14.0976C11.6171 14.0318 11.8766 13.9116 12.0608 13.7272L12.1272 13.6543C12.2747 13.4746 12.3737 13.2224 12.4312 12.7943C12.4989 12.2907 12.5002 11.6233 12.5002 10.6666V7.33331ZM13.5002 10.6666C13.5002 11.5951 13.5015 12.342 13.4228 12.9277C13.3471 13.4903 13.1903 13.9698 12.8401 14.3581L12.7678 14.4342C12.3667 14.8357 11.8613 15.0085 11.2613 15.0892C10.6756 15.1679 9.92872 15.1666 9.00025 15.1666H7.00025C6.07177 15.1666 5.3249 15.1679 4.73918 15.0892C4.17654 15.0135 3.69709 14.8567 3.30884 14.5065L3.23267 14.4342C2.83124 14.0331 2.65841 13.5277 2.57772 12.9277C2.49896 12.342 2.50025 11.5951 2.50025 10.6666V7.33331C2.50025 6.40484 2.49896 5.65797 2.57772 5.07225C2.65841 4.47227 2.83124 3.96682 3.23267 3.56574L3.30884 3.49347C3.69709 3.14324 4.17654 2.98645 4.73918 2.91079C5.3249 2.83203 6.07177 2.83331 7.00025 2.83331H9.00025C9.92872 2.83331 10.6756 2.83203 11.2613 2.91079C11.8613 2.99148 12.3667 3.16431 12.7678 3.56574L12.8401 3.64191C13.1903 4.03016 13.3471 4.50961 13.4228 5.07225C13.5015 5.65797 13.5002 6.40484 13.5002 7.33331V10.6666Z" fill="#5C5C5C"/>
<path d="M0.500244 10.6666V6.66665C0.500244 5.42379 0.499267 4.44105 0.602458 3.67381C0.707583 2.89236 0.928954 2.25973 1.42798 1.76105C1.92694 1.26252 2.55984 1.04074 3.34139 0.935527C4.10852 0.832284 5.0908 0.833313 6.33358 0.833313H9.00025C9.66329 0.833313 10.299 1.09689 10.7678 1.56574C11.2367 2.03458 11.5002 2.67027 11.5002 3.33331H10.5002C10.5002 2.93549 10.3421 2.55407 10.0608 2.27277C9.77949 1.99146 9.39807 1.83331 9.00025 1.83331H6.33358C5.06268 1.83331 4.15981 1.83488 3.47485 1.92706C2.80436 2.01733 2.41737 2.18603 2.13501 2.46808C1.85285 2.75 1.68355 3.13656 1.59334 3.80727C1.5012 4.49236 1.50024 5.39551 1.50024 6.66665V10.6666C1.50024 11.0645 1.65839 11.4459 1.9397 11.7272C2.221 12.0085 2.60242 12.1666 3.00024 12.1666V13.1666C2.3372 13.1666 1.70151 12.9031 1.23267 12.4342C0.763825 11.9654 0.500244 11.3297 0.500244 10.6666Z" fill="#5C5C5C"/>
</svg>
