<svg width="31" height="30" viewBox="0 0 31 30" fill="none" xmlns="http://www.w3.org/2000/svg">
<path d="M23.7032 3.80859C23.3048 3.67969 22.8829 3.59766 22.4493 3.55078C16.9181 2.98828 15.5001 8.26172 15.5001 8.26172C15.5001 8.26172 14.0821 2.98828 8.56258 3.55078C3.42977 4.06641 0.73446 10.5352 4.09774 15.9727C5.05868 17.5313 6.55868 19.207 8.16415 20.7656C11.3868 23.8945 15.0196 26.4961 15.5001 26.4961C16.2266 26.4961 23.9962 20.6719 26.9024 15.9844C29.9845 11.0039 27.9923 5.15625 23.7032 3.80859Z" fill="#ED1C24"/>
<path opacity="0.15" d="M26.9023 15.9727C29.9844 11.0039 27.9922 5.15625 23.7031 3.80859C23.7031 3.80859 27.9805 7.93359 25.5195 12.1758C23.0586 16.418 14.832 21.6914 13.6719 21.8789C12.7109 22.0312 10.2734 21.8086 8.16406 20.7773C11.3867 23.9062 15.0195 26.5078 15.5 26.5078C16.2266 26.4961 23.9961 20.6719 26.9023 15.9727Z" fill="black"/>
<path opacity="0.3" d="M7.5582 8.62724C8.59765 7.39601 8.93522 5.97151 8.3122 5.44553C7.68917 4.91954 6.34146 5.49125 5.30201 6.72247C4.26256 7.9537 3.92499 9.3782 4.54802 9.90418C5.17104 10.4302 6.51875 9.85846 7.5582 8.62724Z" fill="white"/>
</svg>
