<svg width="20" height="19" viewBox="0 0 20 19" fill="none" xmlns="http://www.w3.org/2000/svg">
<path d="M14.5002 1.5C16.7062 1.5 18.5002 3.294 18.5002 5.5C18.5002 10.169 12.9572 14.441 10.0002 16.523C7.04324 14.441 1.50024 10.169 1.50024 5.5C1.50024 3.294 3.29424 1.5 5.50024 1.5C6.14255 1.50145 6.77511 1.65716 7.34469 1.95405C7.91427 2.25093 8.4042 2.68029 8.77324 3.206L10.0002 4.953L11.2272 3.207C11.5962 2.68111 12.0861 2.25155 12.6556 1.95449C13.2252 1.65743 13.8578 1.50156 14.5002 1.5ZM14.5002 5.85637e-08C13.6169 -0.000128949 12.7466 0.212883 11.9632 0.620952C11.1798 1.02902 10.5064 1.6201 10.0002 2.344C9.49407 1.6201 8.82069 1.02902 8.03728 0.620952C7.25387 0.212883 6.38356 -0.000128949 5.50024 5.85637e-08C4.04155 5.85637e-08 2.64261 0.579463 1.61116 1.61091C0.579707 2.64236 0.000244141 4.04131 0.000244141 5.5C0.000244141 11.219 6.50024 15.938 10.0002 18.35C13.5002 15.938 20.0002 11.219 20.0002 5.5C20.0002 4.77773 19.858 4.06253 19.5816 3.39524C19.3052 2.72795 18.9001 2.12163 18.3893 1.61091C17.8786 1.10019 17.2723 0.695063 16.605 0.418663C15.9377 0.142262 15.2225 5.85637e-08 14.5002 5.85637e-08Z" fill="#5C5C5C"/>
</svg>
